<svg id="SVG" xmlns="http://www.w3.org/2000/svg" width="2920" height="2201" viewBox="0 0 2920 2201">
  <defs>
    <style>
      .cls-1, .cls-2 {
        fill: #929291;
        fill-rule: evenodd;
      }

      .cls-1 {
        opacity: 0.1;
      }

      .cls-2 {
        fill-opacity: 0.1;
      }
    </style>
  </defs>
  <g id="Fill">
    <g id="Fill-2" data-name="Fill">
      <path id="Tvar_4" data-name="Tvar 4" class="cls-1" d="M1088.8,1138.99l198.57-398.074,112.16-31.29,169.76,343.614-82.73,88.65Z"/>
    </g>
    <g id="Fill-3" data-name="Fill">
      <path id="Tvar_4-2" data-name="Tvar 4" class="cls-1" d="M2233.07,2087.86l-43.34-710.82,130.45-133.16,510.44,340.49-43.75,189.13Z"/>
    </g>
    <g id="Fill-4" data-name="Fill">
      <path id="Tvar_4-3" data-name="Tvar 4" class="cls-1" d="M800.239,659.475l162.95-129.658,53.781,8.894,4.14,179.359-52.632,21.262Z"/>
    </g>
    <g id="Fill-5" data-name="Fill">
      <path id="Tvar_4-4" data-name="Tvar 4" class="cls-1" d="M2206.27,623.153L2659.4,323.358l137.74,35.4-30.25,467.148-141.65,43.243Z"/>
    </g>
    <g id="Fill-6" data-name="Fill">
      <path id="Tvar_4-5" data-name="Tvar 4" class="cls-2" d="M601.625,1462.27l230.883-206.41,80.6,8.62L934.5,1530.44l-76.333,36.05Z"/>
    </g>
    <g id="Fill-7" data-name="Fill">
      <path id="Tvar_4-6" data-name="Tvar 4" class="cls-2" d="M1795.18,1459.98l-105.23-289.41,37.73-71.22,253.4,78.51,5.09,83.79Z"/>
    </g>
    <g id="Fill-8" data-name="Fill">
      <path id="Tvar_4-7" data-name="Tvar 4" class="cls-2" d="M1056.03,1387.64l221.18-119.36,62,22.01-33.29,213.94-67.05,14.06Z"/>
    </g>
    <g id="Fill-9" data-name="Fill">
      <path id="Tvar_4-8" data-name="Tvar 4" class="cls-2" d="M1122.42,653.192l0.23,40.493,9.63,7.162,33.79-20.888-3.89-10.606Z"/>
    </g>
    <g id="Fill-10" data-name="Fill">
      <path id="Tvar_4-9" data-name="Tvar 4" class="cls-2" d="M1701.05,929.315l228.56-258.246,90.26-.927,58.18,291.364-79.74,49.784Z"/>
    </g>
    <g id="Fill-11" data-name="Fill">
      <path id="Tvar_4-10" data-name="Tvar 4" class="cls-2" d="M587.294,816.286l326.05,99.848,36.686,74.494L707.665,1139.95l-77.024-48.83Z"/>
    </g>
    <g id="Fill-12" data-name="Fill">
      <path id="Tvar_4-11" data-name="Tvar 4" class="cls-2" d="M1491.38,1263.94l35.27-28.84,12.52,1.86,3.99,39.48-11.74,4.78Z"/>
    </g>
    <g id="Fill-13" data-name="Fill">
      <path id="Tvar_4-12" data-name="Tvar 4" class="cls-1" d="M1641.83,81.6l109.02,465.289L1679.6,649.759,1303.43,482.39,1311,352.321Z"/>
    </g>
    <g id="Fill-14" data-name="Fill">
      <path id="Tvar_4-13" data-name="Tvar 4" class="cls-1" d="M596.986,543.023l90.822-5.789,17.08,16.709-43.268,65.65-24.192-5.558Z"/>
    </g>
    <g id="Fill-15" data-name="Fill">
      <path id="Tvar_4-14" data-name="Tvar 4" class="cls-1" d="M123.362,471.2L359.963,628.7l72.324-18.583L417.913,364.749l-74.125-22.726Z"/>
    </g>
    <g id="Fill-16" data-name="Fill">
      <path id="Tvar_4-15" data-name="Tvar 4" class="cls-1" d="M253.409,1054.08l159.728,10.12,30.052-29.42L367.145,919.257l-42.552,9.8Z"/>
    </g>
    <g id="Fill-17" data-name="Fill">
      <path id="Tvar_4-16" data-name="Tvar 4" class="cls-1" d="M517,1318.44l65.354-32.62,5.157-18.59-56.343-28.46-14.562,13.66Z"/>
    </g>
    <g id="Fill-18" data-name="Fill">
      <path id="Tvar_4-17" data-name="Tvar 4" class="cls-1" d="M45.419,1306.88l213.364,174.09,65.723-11.03-11.189-237.6-67.045-28.91Z"/>
    </g>
  </g>
</svg>
